# xmcd
#
# Track frame offsets:
#	150
#	18126
#	39457
#	56289
#	75507
#	100209
#	118974
#	133874
#	154834
#	175145
#
# Disc length: 2580 seconds
#
# Revision: 1
# Processed by: cddbd v1.5.2PL0 Copyright (c) Steve Scherf et al.
# Submitted via: CDmax 2.0
#
DISCID=770a120a
DTITLE=David Gogo - VIBE
DYEAR=2004
DGENRE=Blues
TTITLE0=She's Alright
TTITLE1=300 Pound Shoes
TTITLE2=Silk And Stone
TTITLE3=Cry Harder
TTITLE4=I'd Do Anything
TTITLE5=Hey Juanita
TTITLE6=Love In The City
TTITLE7=Hit Me From Above
TTITLE8=Something Ain't Right
TTITLE9=Why Don't You Show Me
EXTD=
EXTT0=
EXTT1=
EXTT2=
EXTT3=
EXTT4=
EXTT5=
EXTT6=
EXTT7=
EXTT8=
EXTT9=
PLAYORDER=
